<svg width="17" height="18" viewBox="0 0 17 18" fill="none" xmlns="http://www.w3.org/2000/svg">
<path d="M4.72481 0.124674C4.58222 0.18758 4.33898 0.443401 4.28027 0.598572C4.2593 0.65309 4.24252 0.858585 4.24252 1.05569V1.40797H3.84412C3.13537 1.40797 2.88374 1.63863 2.82922 2.3306L2.80406 2.6661H2.01982C1.12655 2.6661 0.95041 2.70385 0.698783 2.94709C0.610714 3.03096 0.501676 3.18613 0.451351 3.29098L0.363281 3.48389V10.3197C0.363281 16.7404 0.367475 17.164 0.434575 17.3108C0.547807 17.5456 0.740721 17.7427 0.95041 17.8434L1.13913 17.9314H6.67491C12.7894 17.9314 12.3701 17.9482 12.6636 17.6672C12.7433 17.5918 12.844 17.4576 12.8943 17.3653C12.9824 17.2101 12.9865 17.1304 12.9991 16.1365L13.0117 15.0797H13.1459C13.5527 15.0797 14.4795 14.7358 14.966 14.4045C15.6202 13.9599 16.2199 13.1883 16.5051 12.4334C16.7484 11.7834 16.8197 10.844 16.6771 10.152C16.4213 8.92322 15.5825 7.84961 14.4502 7.29603C14.0769 7.1157 13.364 6.90182 13.1291 6.90182H13.0075V5.21173C13.0033 3.40001 12.9991 3.35388 12.7811 3.06451C12.7181 2.98483 12.5798 2.8674 12.4707 2.8045C12.2736 2.68707 12.2694 2.68707 11.4055 2.67449L10.5332 2.66191V2.35996C10.5332 2.01607 10.4451 1.7896 10.2564 1.60927C10.0803 1.44571 9.94187 1.40797 9.53088 1.40797H9.15763L9.14085 1.03892C9.11569 0.577602 9.01924 0.36372 8.74245 0.18758L8.54534 0.0659618H6.70008C5.26581 0.0701542 4.82127 0.082737 4.72481 0.124674ZM8.39436 1.35765C8.41533 1.90703 8.41533 1.91961 8.53276 2.02026C8.64599 2.11672 8.67954 2.12091 9.19118 2.12091C9.68605 2.12091 9.73637 2.1293 9.77831 2.20059C9.82863 2.29705 9.83702 3.8781 9.7867 3.95779C9.75734 3.99972 9.1073 4.00811 6.67072 3.99972L3.59249 3.98714V3.06451V2.14188L4.1922 2.12091C4.97224 2.09575 4.95547 2.11252 4.95547 1.3912C4.95547 1.0473 4.97224 0.86278 5.00579 0.829229C5.04354 0.791485 5.45872 0.778904 6.71685 0.787291L8.37339 0.799871L8.39436 1.35765ZM2.81664 3.60551C2.81664 4.14231 2.95923 4.46943 3.28215 4.65815C3.42054 4.74202 3.50023 4.74202 6.67491 4.74202H9.92509L10.1222 4.62879C10.4074 4.45685 10.5332 4.18844 10.5332 3.72713V3.37904H11.2419C11.632 3.37904 12.001 3.39582 12.0639 3.42098C12.282 3.50486 12.2946 3.6097 12.2946 5.32076V6.88924L12.0471 6.91859C11.5774 6.97311 10.9945 7.17861 10.5374 7.44701C8.86407 8.44093 8.11338 10.4875 8.74245 12.3328C9.20376 13.6832 10.378 14.7274 11.7536 15.0168C11.9171 15.0503 12.1059 15.0797 12.173 15.0797H12.2988L12.2862 16.0484L12.2736 17.0172L12.1562 17.1179L12.0388 17.2185H6.67072H1.30269L1.20204 17.1137L1.09719 17.013V10.3114C1.10139 5.11107 1.10977 3.59293 1.15171 3.5426C1.26075 3.40001 1.36559 3.38324 2.09531 3.37904H2.81664V3.60551ZM13.3514 7.68186C14.4082 7.92091 15.2428 8.6003 15.7167 9.59842C15.9515 10.1017 16.0061 10.3701 16.0019 11.0327C16.0019 11.5821 15.9935 11.645 15.8635 12.0182C15.4777 13.1589 14.5802 13.9935 13.4311 14.2871C13.0327 14.3877 12.3407 14.3961 11.9297 14.3038C10.6422 14.0103 9.64411 13.0247 9.33377 11.7414C9.23312 11.3263 9.24151 10.5798 9.35054 10.1646C9.68605 8.90644 10.7429 7.90832 12.0052 7.66089C12.3197 7.59798 13.0327 7.61057 13.3514 7.68186Z" fill="#B17400"/>
<path d="M4.01147 5.63198C3.96533 5.64457 3.69693 5.87942 3.41595 6.1604L2.90431 6.66785L2.67365 6.44977C2.48493 6.26944 2.41783 6.23169 2.29202 6.23169C2.08652 6.23169 1.93555 6.38267 1.93555 6.59236C1.93555 6.73075 1.97748 6.78947 2.32976 7.15013C2.70301 7.52757 2.73656 7.55273 2.89592 7.55273C3.06367 7.55273 3.09303 7.52757 3.7221 6.9027C4.08276 6.54623 4.40149 6.19395 4.43504 6.11846C4.51472 5.92974 4.44343 5.73683 4.2589 5.66134C4.18341 5.62779 4.11212 5.60682 4.10792 5.60682C4.09954 5.61102 4.0576 5.6194 4.01147 5.63198Z" fill="#B17400"/>
<path d="M4.9928 6.27236C4.89634 6.33107 4.81666 6.54495 4.84602 6.67076C4.8586 6.72528 4.91312 6.81335 4.96344 6.85948C5.05151 6.94336 5.10184 6.94336 7.66424 6.94336C9.09851 6.94336 10.3063 6.93078 10.3441 6.9182C10.4531 6.87626 10.5454 6.65818 10.5118 6.49882C10.4615 6.21784 10.5831 6.23042 7.68101 6.23042C6.11254 6.23042 5.03474 6.24719 4.9928 6.27236Z" fill="#B17400"/>
<path d="M3.42014 8.33618L2.90012 8.84362L2.69462 8.65071C2.58139 8.54586 2.4388 8.44521 2.38428 8.43263C2.14943 8.37392 1.93555 8.54586 1.93555 8.7891C1.93555 8.9233 1.97748 8.98202 2.34654 9.34688C2.92528 9.92142 2.85818 9.9382 3.75145 9.04912C4.42665 8.37811 4.4602 8.33618 4.4602 8.18101C4.4602 7.97132 4.30503 7.82453 4.09115 7.82453C3.95695 7.82453 3.88565 7.87486 3.42014 8.33618Z" fill="#B17400"/>
<path d="M5.05166 8.45277C4.821 8.54504 4.77067 8.89312 4.95939 9.06506C5.04327 9.14055 5.14392 9.14475 6.39786 9.15733C7.92859 9.1741 8.02924 9.15733 8.1257 8.93086C8.17602 8.80505 8.17602 8.7715 8.1257 8.64149C8.08795 8.55342 8.01666 8.47794 7.95375 8.45277C7.81536 8.40245 5.18166 8.40245 5.05166 8.45277Z" fill="#B17400"/>
<path d="M3.9905 10.0343C3.95695 10.0469 3.69693 10.286 3.41595 10.5627L2.90431 11.0702L2.67365 10.8521C2.48493 10.6718 2.41783 10.634 2.29202 10.634C2.08652 10.634 1.93555 10.785 1.93555 10.9947C1.93555 11.1331 1.97748 11.1918 2.32976 11.5525C2.70301 11.9299 2.73656 11.9551 2.90012 11.9551C3.06787 11.9551 3.09303 11.9299 3.78081 11.2379C4.41407 10.6047 4.49375 10.5082 4.49375 10.3866C4.49375 10.1392 4.22535 9.95045 3.9905 10.0343Z" fill="#B17400"/>
<path d="M4.96379 10.7186C4.91347 10.7647 4.85895 10.8528 4.84637 10.9073C4.81282 11.0373 4.89669 11.2512 5.00154 11.3057C5.04347 11.3309 5.67673 11.3477 6.51968 11.3477H7.96234L8.0588 11.2428C8.19719 11.0918 8.18881 10.8612 8.03783 10.7312C7.92879 10.6347 7.9246 10.6347 6.49033 10.6347C5.10638 10.6347 5.05186 10.6389 4.96379 10.7186Z" fill="#B17400"/>
<path d="M3.44531 12.7575L2.90012 13.2943L2.67785 13.0762C2.48493 12.8875 2.43461 12.8581 2.28782 12.8581C2.06555 12.8581 1.93555 12.9881 1.93555 13.2146C1.93555 13.3656 1.9691 13.4075 2.32557 13.7682C2.69881 14.1414 2.72398 14.1582 2.90012 14.1582C3.08464 14.1582 3.09303 14.1498 3.76823 13.4746C4.43084 12.8162 4.45181 12.7868 4.45181 12.6191C4.45181 12.401 4.35116 12.2752 4.14567 12.2416C3.9905 12.2165 3.98211 12.2249 3.44531 12.7575Z" fill="#B17400"/>
<path d="M4.95923 12.9287C4.90891 12.9706 4.85858 13.0754 4.84181 13.1593C4.82084 13.2935 4.83761 13.3313 4.94665 13.4445L5.07247 13.5703H6.49835C7.85294 13.5703 7.92843 13.5661 8.02488 13.4864C8.0836 13.4403 8.14231 13.3522 8.15489 13.2935C8.18005 13.1467 8.11295 12.9496 8.0165 12.8993C7.97036 12.8741 7.35388 12.8574 6.49416 12.8574C5.17731 12.8574 5.03891 12.8658 4.95923 12.9287Z" fill="#B17400"/>
<path d="M3.9905 14.4554C3.93178 14.4764 3.66338 14.7155 3.39498 14.9881L2.90012 15.4745L2.70301 15.2816C2.47235 15.0593 2.32557 15.0048 2.14104 15.0803C1.99007 15.1432 1.93555 15.2355 1.93555 15.42C1.93555 15.5374 1.99426 15.6171 2.34654 15.9694C2.92528 16.5481 2.85818 16.5607 3.74306 15.68C4.1876 15.2397 4.45601 14.9419 4.47278 14.8706C4.51053 14.6987 4.42665 14.5393 4.26309 14.4722C4.18341 14.4387 4.11212 14.4093 4.10792 14.4135C4.09954 14.4135 4.04921 14.4345 3.9905 14.4554Z" fill="#B17400"/>
<path d="M4.94665 15.1647C4.83761 15.2779 4.82084 15.3156 4.84181 15.4498C4.89633 15.7686 4.73277 15.7518 7.6768 15.7518C10.5663 15.7518 10.4531 15.7602 10.5118 15.496C10.5495 15.3324 10.4699 15.1479 10.3398 15.085C10.2644 15.0514 9.48432 15.0389 7.65583 15.0389H5.07247L4.94665 15.1647Z" fill="#B17400"/>
<path d="M13.3138 10.5592L11.8754 11.9935L11.1918 11.3141C10.5627 10.6892 10.4956 10.6347 10.3572 10.6347C10.2398 10.6347 10.1811 10.6641 10.0972 10.7647C9.97558 10.9115 9.963 11.008 10.0469 11.1715C10.0804 11.2344 10.4621 11.637 10.8982 12.069C11.6866 12.8532 11.6908 12.8574 11.8754 12.8574H12.0641L13.6661 11.2512C15.2136 9.7079 15.2723 9.6408 15.2723 9.48982C15.2723 9.27174 15.1255 9.12496 14.9075 9.12496C14.7565 9.12496 14.6936 9.18367 13.3138 10.5592Z" fill="#B17400"/>
</svg>
