<svg width="18" height="18" viewBox="0 0 18 18" fill="none" xmlns="http://www.w3.org/2000/svg">
<path d="M2.38089 0.628401C2.30466 0.663053 2.19377 0.746218 2.1314 0.808592C1.90962 1.04076 1.91309 1.01997 1.91309 2.78723C1.91309 4.57529 1.90962 4.5441 2.15912 4.77973C2.39129 5.00151 2.3705 4.99804 4.13776 4.99804C5.92581 4.99804 5.89463 5.00151 6.13026 4.75201C6.35204 4.51984 6.34857 4.54063 6.34857 2.7803C6.34857 1.01997 6.35204 1.04076 6.13026 0.808592C5.89463 0.559096 5.92928 0.562562 4.13083 0.562562C2.63385 0.562562 2.50911 0.569492 2.38089 0.628401ZM5.60008 1.16551C5.67978 1.1967 5.7283 1.24868 5.75602 1.32491C5.808 1.48431 5.808 4.0763 5.75602 4.2357C5.68325 4.43668 5.6382 4.44361 4.13776 4.44361C3.21948 4.44361 2.75514 4.42975 2.67544 4.40549C2.47445 4.33272 2.46752 4.28767 2.46752 2.78723C2.46752 1.87242 2.48139 1.40461 2.50564 1.32491C2.57841 1.12393 2.61306 1.12046 4.1239 1.117C5.21198 1.117 5.50652 1.12739 5.60008 1.16551Z" fill="#B17400"/>
<path d="M4.29732 2.45785L3.57655 3.17862L3.40329 3.00536L3.23003 2.83209L3.01172 3.0504L2.79688 3.26525L3.18844 3.65335L3.57655 4.04492L4.51909 3.10238L5.46509 2.15638L5.25718 1.94846C5.14283 1.83411 5.04234 1.74055 5.03194 1.74055C5.02155 1.74055 4.69235 2.06282 4.29732 2.45785Z" fill="#B17400"/>
<path d="M7.93592 1.26645C7.38842 1.63376 6.94141 1.9387 6.94141 1.94909C6.94141 1.96642 8.89233 3.27281 8.94777 3.2936C8.97203 3.304 9.16261 3.0441 9.2735 2.86045C9.28736 2.83273 9.14529 2.71491 8.85421 2.52086L8.41066 2.22285L8.93044 2.24364C10.1086 2.29562 10.9229 2.49313 11.8759 2.95401C13.0748 3.5327 14.1109 4.49257 14.7901 5.64648C14.8976 5.82321 14.9876 5.96875 14.998 5.96875C15.0292 5.96875 15.497 5.72618 15.497 5.70539C15.497 5.66381 15.3342 5.3762 15.1609 5.10244C14.1213 3.50498 12.5966 2.38918 10.8051 1.91444C10.1641 1.74465 9.83833 1.6996 9.11063 1.68227L8.42452 1.66148L8.86114 1.3704C9.14875 1.17981 9.28736 1.06546 9.2735 1.03774C9.17994 0.881806 8.97549 0.597658 8.9547 0.601123C8.94084 0.601123 8.48343 0.902597 7.93592 1.26645Z" fill="#B17400"/>
<path d="M7.75526 5.66274C7.731 5.72512 7.68942 5.83947 7.6617 5.9157C7.63051 5.99887 7.58546 6.05778 7.54388 6.06817C7.50923 6.0751 7.37409 6.02659 7.24241 5.96422L7.00331 5.84986L6.27215 6.58449L5.53752 7.31565L5.65187 7.55475C5.71425 7.68643 5.75929 7.82157 5.75236 7.85969C5.74543 7.90474 5.6692 7.94979 5.4994 8.01216L5.25684 8.10226V9.15568V10.2091L5.4994 10.2992C5.6692 10.3616 5.74543 10.4066 5.75236 10.4517C5.75929 10.4898 5.71425 10.6249 5.65187 10.7566L5.53752 10.9957L6.27215 11.7303L7.00677 12.465L7.2632 12.3368C7.5716 12.1843 7.59239 12.1947 7.70675 12.5169L7.78645 12.7422H8.84334H9.89677L9.98686 12.4996C10.0492 12.3298 10.0943 12.2536 10.1393 12.2467C10.1774 12.2397 10.3126 12.2848 10.4443 12.3472L10.6834 12.4615L11.4145 11.7269L12.1492 10.9957L12.0348 10.7566C11.9724 10.6249 11.9274 10.4898 11.9343 10.4517C11.9412 10.4066 12.0175 10.3616 12.1873 10.2992L12.4298 10.2091V9.15568V8.10226L12.1873 8.01216C12.0175 7.94979 11.9412 7.90474 11.9343 7.85969C11.9274 7.82157 11.9724 7.68643 12.0348 7.55475L12.1492 7.31565L11.4145 6.58449L10.6834 5.84986L10.4443 5.96422C10.3126 6.02659 10.1774 6.07164 10.1393 6.06471C10.0943 6.05778 10.0492 5.98154 9.98686 5.81175L9.89677 5.56918L8.85027 5.55879L7.80031 5.55186L7.75526 5.66274ZM9.52599 6.30381C9.59183 6.49786 9.59529 6.50133 9.83439 6.60182C10.1844 6.74736 10.1844 6.74736 10.3715 6.65726L10.5448 6.57756L10.9814 7.01764L11.4215 7.45426L11.3418 7.62752C11.2517 7.81464 11.2517 7.81464 11.3972 8.16463C11.4977 8.40373 11.5012 8.4072 11.6952 8.47304L11.8927 8.53888V9.15568V9.77249L11.6952 9.83833C11.5012 9.90417 11.4977 9.90764 11.3972 10.1467C11.2517 10.4967 11.2517 10.4967 11.3418 10.6838L11.4215 10.8571L10.9814 11.2937L10.5448 11.7338L10.3715 11.6541C10.1844 11.564 10.1844 11.564 9.83439 11.7096C9.59529 11.81 9.59183 11.8135 9.52599 12.0076L9.46015 12.2051H8.84334H8.22653L8.16069 12.0076C8.09485 11.8135 8.09139 11.81 7.85229 11.7096C7.5023 11.564 7.5023 11.564 7.31518 11.6541L7.14192 11.7338L6.7053 11.2937L6.26522 10.8571L6.34492 10.6838C6.43501 10.4967 6.43501 10.4967 6.28947 10.1467C6.18898 9.90764 6.18552 9.90417 5.99146 9.83833L5.79395 9.77249V9.15568V8.53888L5.99146 8.47304C6.18552 8.4072 6.18898 8.40373 6.28947 8.16463C6.43501 7.81464 6.43501 7.81464 6.34492 7.62752L6.26522 7.45426L6.7053 7.01764L7.14192 6.57756L7.31518 6.65726C7.5023 6.74736 7.5023 6.74736 7.85229 6.60182C8.09139 6.50133 8.09485 6.49786 8.16069 6.30381L8.22653 6.10629H8.84334H9.46015L9.52599 6.30381Z" fill="#B17400"/>
<path d="M8.23741 7.00405C7.48893 7.21889 6.87212 7.8461 6.68153 8.58766C6.60876 8.86834 6.60876 9.44356 6.68153 9.72425C6.87905 10.4866 7.54091 11.145 8.29286 11.3217C8.57701 11.3876 9.11065 11.3876 9.3948 11.3217C9.97002 11.1866 10.5349 10.743 10.8086 10.2128C10.9992 9.84207 11.0616 9.58564 11.0616 9.15595C11.0616 8.72626 10.9992 8.46984 10.8086 8.09906C10.5383 7.57581 9.99082 7.14266 9.41212 6.99365C9.12105 6.91742 8.51463 6.92435 8.23741 7.00405ZM9.34628 7.5966C9.72399 7.72828 10.074 8.01243 10.2715 8.35895C10.5418 8.82329 10.5418 9.48861 10.2715 9.95295C9.7136 10.9163 8.41068 11.0757 7.65872 10.2718C7.35378 9.94602 7.21517 9.5995 7.21517 9.15595C7.21517 8.58419 7.49586 8.08173 7.98099 7.7664C8.3587 7.5273 8.93392 7.45453 9.34628 7.5966Z" fill="#B17400"/>
<path d="M8.40067 8.12056C7.99871 8.27649 7.73535 8.68539 7.73535 9.15666C7.73535 9.60714 7.95713 9.97445 8.34177 10.1616C8.59126 10.2863 8.99669 10.3002 9.27044 10.1962C9.68974 10.0368 9.95309 9.63832 9.95309 9.15666C9.95309 8.49827 9.49568 8.04432 8.83383 8.05125C8.67096 8.05125 8.52196 8.07551 8.40067 8.12056ZM9.11451 8.70618C9.56499 8.97993 9.37094 9.67644 8.84422 9.67644C8.54968 9.67644 8.32444 9.4512 8.32444 9.15666C8.32444 8.86211 8.54968 8.63687 8.84422 8.63687C8.93778 8.63687 9.0452 8.6646 9.11451 8.70618Z" fill="#B17400"/>
<path d="M1.94802 6.18712C1.79902 6.51286 1.61883 7.08462 1.5218 7.52816C1.38319 8.1519 1.34854 8.56427 1.36933 9.36127C1.39012 10.1756 1.46636 10.6226 1.70199 11.333C1.77823 11.5582 1.83713 11.7419 1.83367 11.7453C1.8302 11.7453 1.57724 11.6102 1.2723 11.4404C0.967364 11.2741 0.700542 11.132 0.676285 11.132C0.638168 11.132 0.388672 11.5444 0.388672 11.6067C0.388672 11.6379 2.67225 12.9131 2.69304 12.8923C2.7069 12.875 3.29946 10.3939 3.29946 10.3489C3.29946 10.2969 2.78314 10.1791 2.74502 10.2206C2.73116 10.2345 2.65146 10.5325 2.5683 10.8825C2.4886 11.229 2.4089 11.5028 2.39503 11.4889C2.34652 11.4369 2.12475 10.6954 2.04851 10.335C1.95495 9.88452 1.91683 8.81376 1.97921 8.33903C2.06584 7.68757 2.22177 7.09501 2.45394 6.52672C2.52325 6.36732 2.56137 6.22524 2.5475 6.20792C2.53364 6.19406 2.41236 6.13515 2.28415 6.07624L2.04851 5.96882L1.94802 6.18712Z" fill="#B17400"/>
<path d="M13.4698 7.0034C13.3935 7.03805 13.2826 7.12122 13.2203 7.18359C12.9985 7.41576 13.002 7.39497 13.002 9.16223C13.002 10.9503 12.9985 10.9191 13.248 11.1547C13.4802 11.3765 13.4594 11.373 15.2266 11.373C17.0147 11.373 16.9835 11.3765 17.2191 11.127C17.4409 10.8948 17.4374 10.9156 17.4374 9.1553C17.4374 7.39497 17.4409 7.41576 17.2191 7.18359C16.9835 6.9341 17.0181 6.93756 15.2197 6.93756C13.7227 6.93756 13.598 6.94449 13.4698 7.0034ZM16.689 7.54051C16.7687 7.5717 16.8172 7.62368 16.8449 7.69991C16.8969 7.85931 16.8969 10.4513 16.8449 10.6107C16.7721 10.8117 16.7271 10.8186 15.2266 10.8186C14.3083 10.8186 13.844 10.8047 13.7643 10.7805C13.5633 10.7077 13.5564 10.6627 13.5564 9.16223C13.5564 8.24742 13.5703 7.77961 13.5945 7.69991C13.6673 7.49893 13.7019 7.49546 15.2128 7.492C16.3008 7.492 16.5954 7.50239 16.689 7.54051Z" fill="#B17400"/>
<path d="M15.3862 8.8348L14.6654 9.55557L14.4922 9.38231L14.3189 9.20905L14.1006 9.42736L13.8857 9.6422L14.2773 10.0303L14.6654 10.4219L15.608 9.47934L16.554 8.53333L16.346 8.32542C16.2317 8.21106 16.1312 8.1175 16.1208 8.1175C16.1104 8.1175 15.7812 8.43977 15.3862 8.8348Z" fill="#B17400"/>
<path d="M14.1556 12.4406C13.5041 12.6069 12.9601 12.7524 12.9497 12.7663C12.915 12.8009 13.0432 13.3138 13.0848 13.3138C13.1056 13.3138 13.4556 13.2272 13.8575 13.1267C14.263 13.0227 14.5852 12.9569 14.5714 12.9811C14.457 13.1787 13.9927 13.7435 13.712 14.0242C13.1229 14.6167 12.5754 15.0083 11.8131 15.3756C10.2017 16.1622 8.31319 16.2766 6.62563 15.6909C6.38653 15.6078 6.13357 15.5142 6.0608 15.483L5.92912 15.4241L5.80437 15.6875C5.73853 15.833 5.69002 15.9578 5.69695 15.9682C5.74546 16.0132 6.44544 16.2766 6.76424 16.3667C7.45035 16.5607 7.82806 16.6127 8.65278 16.63C9.49483 16.6508 9.94531 16.6058 10.6072 16.4464C11.6918 16.1795 12.7764 15.6355 13.6184 14.9286C13.9823 14.6271 14.5021 14.0831 14.7654 13.7296C14.8867 13.5668 14.9976 13.4212 15.0115 13.4074C15.0253 13.3935 15.0738 13.688 15.1189 14.0623L15.1986 14.7415L15.4793 14.7172C15.6317 14.7034 15.7634 14.686 15.7738 14.6791C15.7807 14.6687 15.7184 14.0969 15.6352 13.4074C15.4897 12.2361 15.4758 12.153 15.41 12.146C15.3718 12.1426 14.807 12.2777 14.1556 12.4406Z" fill="#B17400"/>
<path d="M0.717808 13.3804C0.641573 13.415 0.530686 13.4982 0.468312 13.5605C0.246538 13.7927 0.250003 13.7719 0.250003 15.5392C0.250003 17.3272 0.246538 17.2961 0.496034 17.5317C0.728204 17.7535 0.707412 17.75 2.47467 17.75C4.26273 17.75 4.23154 17.7535 4.46718 17.504C4.68895 17.2718 4.68549 17.2926 4.68549 15.5323C4.68549 13.7719 4.68895 13.7927 4.46718 13.5605C4.23154 13.311 4.26619 13.3145 2.46774 13.3145C0.970769 13.3145 0.846021 13.3214 0.717808 13.3804ZM3.937 13.9175C4.0167 13.9487 4.06521 14.0006 4.09293 14.0769C4.14491 14.2363 4.14491 16.8282 4.09293 16.9876C4.02016 17.1886 3.97512 17.1956 2.47467 17.1956C1.55639 17.1956 1.09205 17.1817 1.01235 17.1574C0.811369 17.0847 0.804438 17.0396 0.804438 15.5392C0.804438 14.6244 0.818299 14.1566 0.842556 14.0769C0.915326 13.8759 0.949978 13.8724 2.46081 13.869C3.54889 13.869 3.84344 13.8793 3.937 13.9175Z" fill="#B17400"/>
<path d="M2.63423 15.2098L1.91346 15.9306L1.7402 15.7573L1.56694 15.584L1.34863 15.8024L1.13379 16.0172L1.52536 16.4053L1.91346 16.7969L2.856 15.8543L3.80201 14.9083L3.5941 14.7004C3.47974 14.5861 3.37925 14.4925 3.36886 14.4925C3.35846 14.4925 3.02926 14.8148 2.63423 15.2098Z" fill="#B17400"/>
</svg>
