<svg width="18" height="17" viewBox="0 0 18 17" fill="none" xmlns="http://www.w3.org/2000/svg">
<path d="M11.9006 0.263769C10.2496 0.369371 8.80994 1.28811 7.90176 2.8123C7.87008 2.86862 7.78912 2.82638 7.09214 2.41101C5.98684 1.74572 5.9798 1.74924 5.78619 2.69614L5.72635 3.00591L5.30746 3.22063C4.56825 3.59728 3.93464 4.14289 3.50871 4.77298L3.2975 5.07923H2.50197C1.87187 5.07923 1.66419 5.08979 1.51283 5.13555C0.826412 5.33971 0.365282 5.88533 0.284321 6.59638C0.23856 7.00119 0.23856 10.0214 0.284321 10.1904C0.305441 10.2643 0.351202 10.3382 0.389923 10.3593C0.425124 10.3805 0.72433 10.3945 1.07282 10.3945H1.68883L1.69939 12.9888L1.70995 15.5866L1.81203 15.8049C1.93171 16.0654 2.23796 16.3751 2.49141 16.4948L2.66037 16.5723H6.84926H11.0381L11.2493 16.4702C11.5134 16.3399 11.8231 16.0337 11.9463 15.7802C12.0801 15.5092 12.1188 15.2417 12.1047 14.7172C12.0906 14.1258 12.0906 14.1258 11.545 14.1258H11.1613V12.0631C11.1613 10.1129 11.1649 10.0003 11.2247 10.0249C11.2564 10.039 11.4817 10.0742 11.7246 10.1059C12.7313 10.2326 13.8401 9.98621 14.7694 9.42652C15.9275 8.73306 16.7407 7.64536 17.0645 6.36053C17.156 6.00149 17.1631 5.92757 17.1631 5.23763C17.1631 4.66034 17.149 4.43505 17.0997 4.20977C16.885 3.21711 16.4415 2.39693 15.7234 1.67884C15.132 1.09099 14.5653 0.738978 13.7873 0.485533C13.1889 0.28841 12.587 0.218008 11.9006 0.263769ZM12.9847 0.900902C13.0164 0.922023 12.9953 0.967784 12.9073 1.07691C12.763 1.25643 12.5799 1.61196 12.4919 1.89356C12.3899 2.20685 12.3652 2.91086 12.4427 3.26287C12.5166 3.5832 12.6891 3.94224 12.8897 4.18161C13.1291 4.46674 13.1854 4.62162 13.1854 5.00883C13.1854 5.37491 13.1255 5.55444 12.9425 5.77268C12.7278 6.02613 12.2737 6.15285 11.9322 6.05077C11.531 5.93461 11.281 5.65652 11.1825 5.20947C10.929 4.08657 9.84836 3.21359 8.70786 3.21359C8.54945 3.21359 8.41569 3.19951 8.41569 3.18543C8.41569 3.16783 8.47201 3.06223 8.54241 2.94606C9.00002 2.18573 9.70052 1.56972 10.5172 1.21067C10.7812 1.09451 11.2881 0.939623 11.5662 0.890342C11.7774 0.851621 12.9214 0.862182 12.9847 0.900902ZM14.1921 1.30571C15.0264 1.7246 15.7093 2.41101 16.1282 3.24879C16.2655 3.52336 16.4415 3.99153 16.4415 4.08305C16.4415 4.11473 16.3887 4.12881 16.2619 4.12881C16.0226 4.12881 15.6248 4.22385 15.3608 4.34001C14.1217 4.8997 13.562 6.39574 14.1323 7.63128C14.1956 7.76504 14.3083 7.97273 14.3857 8.09241C14.4597 8.20857 14.5688 8.40218 14.6286 8.52538L14.7307 8.74714L14.6462 8.81403C14.4526 8.96539 13.6993 9.30684 13.379 9.3878C12.1505 9.70812 10.9185 9.48636 9.81316 8.75418C8.85218 8.11353 8.16928 7.08215 7.97568 5.98037C7.94752 5.80788 7.92288 5.58612 7.92288 5.48404V5.29747L8.59521 4.70258C9.0669 4.28369 9.27107 4.08305 9.28515 4.01617C9.30275 3.92816 9.30979 3.92464 9.39779 3.96337C9.61955 4.05841 9.93988 4.28721 10.1124 4.47378C10.3517 4.73426 10.5101 5.03699 10.6017 5.40308C10.6967 5.78324 10.8093 5.98741 11.0557 6.21973C11.8618 6.98711 13.1396 6.79702 13.6078 5.83956C13.9352 5.17779 13.8472 4.41041 13.386 3.82256C13.1079 3.47408 12.9918 3.13263 12.9918 2.66798C12.9918 2.13293 13.1783 1.6542 13.5233 1.30923C13.7592 1.07339 13.731 1.07339 14.1921 1.30571ZM7.47583 3.35087C8.032 3.68528 8.48609 3.96337 8.48609 3.96689C8.48609 4.01265 6.64509 5.60724 6.62045 5.58612C6.60637 5.56852 6.56765 5.46996 6.53245 5.36435C6.44797 5.10739 6.37757 5.04403 6.17692 5.04403C5.74043 5.04403 5.11738 5.32563 4.63161 5.74804C4.06488 6.23733 3.70935 6.87799 3.58263 7.63128L3.53687 7.90937L3.47351 7.62072C3.33974 7.00471 3.42423 6.25845 3.69527 5.66356C4.09656 4.7765 5.00474 3.94224 5.95868 3.5832C6.191 3.49872 6.25084 3.41423 6.31773 3.09039C6.39165 2.74542 6.40221 2.71374 6.43389 2.73134C6.45149 2.73838 6.91614 3.01647 7.47583 3.35087ZM16.5752 5.31507C16.5611 5.80436 16.54 5.96277 16.4661 6.24085C16.2619 6.99415 15.9451 7.5644 15.3995 8.16985L15.2305 8.35994L15.1461 8.18745C15.1003 8.09593 14.9736 7.88121 14.8715 7.71576C14.6321 7.33912 14.5371 7.07159 14.516 6.71606C14.4808 6.17749 14.6779 5.67764 15.0827 5.27283C15.4629 4.89266 15.8254 4.73778 16.3323 4.73074L16.5893 4.72722L16.5752 5.31507ZM3.01238 5.73748C2.9279 5.93109 2.85045 6.30069 2.82229 6.60342C2.73429 7.62776 3.08278 8.71546 3.76215 9.53916C3.98392 9.80317 4.12824 9.88413 4.29368 9.82781C4.49785 9.7574 4.52601 9.56732 4.38521 9.26107C4.09656 8.62746 4.08248 7.80728 4.35353 7.14199C4.56825 6.61046 5.0329 6.10709 5.53627 5.86068C5.98684 5.63892 5.97276 5.6354 6.11004 6.02613C6.1734 6.20917 6.25436 6.38166 6.28957 6.4063C6.32477 6.43094 6.41277 6.45206 6.48669 6.45206C6.60285 6.45206 6.65565 6.42038 6.90558 6.19509C7.06398 6.05781 7.2259 5.91349 7.26815 5.8818L7.34559 5.82196L7.40543 6.14229C7.52511 6.7759 7.79616 7.43064 8.17632 7.99385C8.42977 8.37754 9.09858 9.03227 9.49635 9.29276C9.67235 9.40892 9.98564 9.5814 10.1898 9.67644L10.5629 9.84893V11.9856V14.1258H7.28223H4.00152L3.92056 14.2033C3.84311 14.2737 3.83959 14.3018 3.83959 14.777C3.83959 15.379 3.79383 15.569 3.60375 15.7521C3.41719 15.9281 3.26582 15.995 3.04758 15.995C2.72373 15.995 2.42453 15.7767 2.32948 15.467C2.30132 15.3684 2.29076 14.0202 2.29076 10.5037V5.67764H2.66389C3.00534 5.67764 3.03702 5.68116 3.01238 5.73748ZM1.69235 7.77208V9.83133H1.26994H0.847532V8.34234C0.847532 7.49048 0.865133 6.76182 0.882733 6.63158C0.928494 6.35349 1.02002 6.17397 1.20306 5.99797C1.32626 5.87476 1.59379 5.71284 1.66771 5.71284C1.68179 5.71284 1.69235 6.63862 1.69235 7.77208ZM11.5063 15.0375C11.4782 15.5127 11.3127 15.7732 10.929 15.9457C10.8023 16.0055 10.57 16.0091 7.48639 16.0196L4.18104 16.0302L4.23736 15.9457C4.33592 15.7943 4.40633 15.4846 4.42745 15.1009L4.44857 14.7242H7.98624H11.5239L11.5063 15.0375Z" fill="#B17400"/>
<path d="M4.57919 7.93102C4.53343 7.97678 4.50879 8.04718 4.50879 8.14222C4.50879 8.23726 4.53343 8.30767 4.57919 8.35343C4.64607 8.42031 4.69535 8.42383 6.19842 8.42383C7.7015 8.42383 7.75078 8.42031 7.81766 8.35343C7.86342 8.30767 7.88806 8.23726 7.88806 8.14222C7.88806 8.04718 7.86342 7.97678 7.81766 7.93102C7.75078 7.86414 7.7015 7.86062 6.19842 7.86062C4.69535 7.86062 4.64607 7.86414 4.57919 7.93102Z" fill="#B17400"/>
<path d="M4.57919 9.62047C4.53343 9.66623 4.50879 9.73663 4.50879 9.83168C4.50879 9.92672 4.53343 9.99712 4.57919 10.0429C4.64607 10.1098 4.69535 10.1133 6.19842 10.1133C7.7015 10.1133 7.75078 10.1098 7.81766 10.0429C7.86342 9.99712 7.88806 9.92672 7.88806 9.83168C7.88806 9.73663 7.86342 9.66623 7.81766 9.62047C7.75078 9.55359 7.7015 9.55007 6.19842 9.55007C4.69535 9.55007 4.64607 9.55359 4.57919 9.62047Z" fill="#B17400"/>
<path d="M2.88876 11.3099C2.843 11.3557 2.81836 11.4261 2.81836 11.5211C2.81836 11.6162 2.843 11.6866 2.88876 11.7323C2.95916 11.8027 3.00492 11.8027 6.19763 11.8027C9.39034 11.8027 9.4361 11.8027 9.5065 11.7323C9.55226 11.6866 9.5769 11.6162 9.5769 11.5211C9.5769 11.4261 9.55226 11.3557 9.5065 11.3099C9.4361 11.2395 9.39034 11.2395 6.19763 11.2395C3.00492 11.2395 2.95916 11.2395 2.88876 11.3099Z" fill="#B17400"/>
<path d="M2.88876 12.9994C2.843 13.0451 2.81836 13.1155 2.81836 13.2106C2.81836 13.3056 2.843 13.376 2.88876 13.4218C2.95916 13.4922 3.00492 13.4922 6.19763 13.4922C9.39034 13.4922 9.4361 13.4922 9.5065 13.4218C9.55226 13.376 9.5769 13.3056 9.5769 13.2106C9.5769 13.1155 9.55226 13.0451 9.5065 12.9994C9.4361 12.929 9.39034 12.929 6.19763 12.929C3.00492 12.929 2.95916 12.929 2.88876 12.9994Z" fill="#B17400"/>
</svg>
