<svg width="18" height="17" viewBox="0 0 18 17" fill="none" xmlns="http://www.w3.org/2000/svg">
<path d="M8.67682 0.0404716C8.48886 0.125906 8.39317 0.255767 8.13345 0.775211C7.97967 1.07936 7.84297 1.30832 7.79855 1.33566C7.75412 1.363 7.53541 1.41085 7.30986 1.4416C6.61955 1.53729 6.54778 1.55779 6.394 1.69449C6.21629 1.85511 6.13086 2.04648 6.13086 2.27886C6.13086 2.56251 6.22313 2.70946 6.65714 3.1298C6.86902 3.33142 7.06039 3.52963 7.07748 3.56722C7.10482 3.61507 7.08773 3.78593 7.01596 4.19602C6.91344 4.78381 6.91686 4.91026 7.01938 5.11872C7.14924 5.37502 7.38504 5.5083 7.70286 5.5083C7.91474 5.5083 7.94891 5.49805 8.46494 5.22466L9.00147 4.94101L9.54142 5.22466C10.054 5.49463 10.0882 5.5083 10.3001 5.51172C10.5837 5.51172 10.7853 5.40578 10.9357 5.18023C11.0861 4.95468 11.0929 4.82482 10.9836 4.18919C10.9152 3.78593 10.8981 3.61507 10.9255 3.56722C10.9425 3.52963 11.1339 3.33142 11.3458 3.1298C11.7798 2.70946 11.8721 2.56251 11.8721 2.27886C11.8721 2.04648 11.7866 1.85511 11.6089 1.69791C11.4517 1.55779 11.3663 1.53046 10.7102 1.4416C10.4744 1.41085 10.2488 1.363 10.2078 1.33908C10.1634 1.31174 10.0164 1.06227 9.85582 0.747872C9.5175 0.08148 9.44573 0.0165496 9.03906 -0.000537395C8.87161 -0.00395441 8.74175 0.00971508 8.67682 0.0404716ZM9.08007 0.542829C9.13475 0.56675 9.23044 0.720533 9.39789 1.06227C9.53117 1.33225 9.69178 1.60906 9.76697 1.69107C9.92758 1.86878 10.0574 1.90979 10.7067 1.99864C11.2125 2.06357 11.3253 2.11483 11.3253 2.27886C11.3253 2.35746 11.2433 2.45315 10.8845 2.79831C10.4778 3.18789 10.4402 3.23915 10.3855 3.41686C10.3308 3.60823 10.3343 3.62532 10.4299 4.18919C10.5325 4.80432 10.529 4.88975 10.3889 4.95127C10.3172 4.98544 10.2557 4.96494 9.91733 4.79065C9.70545 4.68129 9.4594 4.55485 9.37055 4.51042C9.1655 4.40448 8.85452 4.39765 8.66657 4.49334C8.59822 4.52751 8.34875 4.65395 8.11978 4.77356C7.7507 4.96152 7.68577 4.98544 7.61401 4.95127C7.4739 4.88975 7.47048 4.80432 7.573 4.20627C7.71311 3.37927 7.69603 3.33484 7.07406 2.75046C6.74599 2.44632 6.67764 2.3643 6.67764 2.28228C6.67764 2.11483 6.787 2.06357 7.29619 1.99864C7.9455 1.90979 8.07536 1.86878 8.23597 1.69107C8.31116 1.60906 8.47177 1.33225 8.60505 1.06227C8.8101 0.64535 8.88186 0.542829 8.99122 0.508655C8.99464 0.505237 9.03564 0.522324 9.08007 0.542829Z" fill="#B17400"/>
<path d="M8.42428 5.62152C8.36276 5.65228 8.27049 5.73771 8.21923 5.8129L8.13038 5.94959L8.12013 7.12176L8.10988 8.29392L7.5836 8.30418C7.09149 8.31443 7.05049 8.31785 6.97872 8.38961C6.88303 8.4853 6.87962 8.67667 6.96847 8.77578C7.02656 8.84071 7.06757 8.84412 7.77839 8.84412C8.47896 8.84412 8.5268 8.84071 8.59173 8.77578C8.65666 8.71085 8.66008 8.663 8.66008 7.40882V6.11021H8.98473H9.30597L9.31622 7.4054C9.32647 8.61516 9.32989 8.70401 9.3914 8.77236C9.45291 8.84071 9.48025 8.84071 11.5375 8.85096L13.6221 8.86121L13.7212 8.97399L13.8203 9.08334V10.8911C13.8203 12.6579 13.8203 12.6989 13.8887 12.7844L13.9605 12.8732L15.4709 12.8835C17.0771 12.8937 17.06 12.8937 17.1728 13.0612C17.2104 13.1193 17.2241 13.42 17.2309 14.6537C17.2377 15.491 17.2309 16.2086 17.2206 16.253C17.2036 16.3282 17.1899 16.3316 16.8857 16.3214L16.5713 16.3111L16.5543 14.9852C16.5372 13.7207 16.5338 13.6558 16.4722 13.608C16.4176 13.5704 16.2501 13.5601 15.6623 13.5601H14.9173L14.849 13.649C14.767 13.7515 14.7601 13.8267 14.8148 13.9497C14.8729 14.0762 15.0096 14.1069 15.5325 14.1069H16.0075V15.1902C16.0075 15.7883 16.0246 16.3385 16.0416 16.4102C16.0827 16.5948 16.1715 16.7075 16.3492 16.7998C16.4791 16.8647 16.5543 16.875 16.896 16.875C17.2377 16.875 17.3129 16.8647 17.4428 16.7998C17.5282 16.7554 17.6307 16.67 17.6752 16.605L17.7538 16.4854L17.7435 14.705L17.7333 12.9211L17.6307 12.7536C17.5658 12.6511 17.4633 12.5486 17.3608 12.4836L17.1933 12.3811L15.7785 12.3709L14.3671 12.3606V10.6793V8.99791L14.2851 8.82704C14.1894 8.62541 14.0254 8.46138 13.8374 8.37594C13.711 8.31785 13.5435 8.31443 11.7802 8.30418L9.85617 8.29392V7.12176C9.85617 5.95984 9.85617 5.94959 9.77757 5.8334C9.73656 5.77189 9.6477 5.68304 9.58619 5.64203C9.48025 5.57026 9.43241 5.56343 9.00523 5.56343C8.64299 5.56343 8.51655 5.5771 8.42428 5.62152Z" fill="#B17400"/>
<path d="M4.31328 8.3281C4.10824 8.36911 3.87244 8.53656 3.75625 8.7211L3.65372 8.88855L3.64347 10.6246L3.63322 12.3606L2.22184 12.3709L0.810453 12.3811L0.643 12.4836C0.540478 12.5486 0.437957 12.6511 0.373026 12.7536L0.270504 12.9211L0.260252 14.705L0.25 16.4854L0.3286 16.605C0.373026 16.67 0.475548 16.7554 0.560983 16.7964C0.690844 16.8647 0.766026 16.875 1.10777 16.875C1.44951 16.875 1.52469 16.8647 1.65455 16.7998C1.83225 16.7075 1.92111 16.5948 1.96211 16.4102C1.9792 16.3385 1.99629 15.7883 1.99629 15.1902V14.1069H4.50807H7.01986V15.2244C7.02327 16.3966 7.03694 16.5162 7.18047 16.6768C7.31034 16.8272 7.48804 16.875 7.90838 16.875C8.25012 16.875 8.3253 16.8647 8.45516 16.7964C8.5406 16.7554 8.64312 16.67 8.68754 16.605L8.76614 16.4854L8.75589 14.705L8.74564 12.9211L8.64312 12.7536C8.57819 12.6511 8.47567 12.5486 8.37315 12.4836L8.20569 12.3811L6.79089 12.3709L5.37951 12.3606V11.2021V10.0402H9.00195H12.6244V11.2021V12.3606L11.213 12.3709L9.7982 12.3811L9.63075 12.4836C9.52822 12.5486 9.4257 12.6511 9.36077 12.7536L9.25825 12.9211V14.7255C9.25825 16.4923 9.25825 16.5298 9.33002 16.6255C9.36761 16.6768 9.46671 16.7554 9.54873 16.7998C9.67859 16.8647 9.75035 16.875 10.0955 16.875C10.5159 16.875 10.6936 16.8272 10.8234 16.6768C10.9669 16.5162 10.9806 16.3966 10.984 15.2244V14.1069H12.5014C14.0631 14.1069 14.1964 14.0967 14.2647 13.9702C14.3228 13.8609 14.3023 13.7139 14.2203 13.6353L14.1417 13.5601H12.3647C10.8849 13.5601 10.5774 13.567 10.5193 13.608C10.4578 13.6558 10.4543 13.7207 10.4373 14.9852L10.4202 16.3111L10.1058 16.3214L9.78795 16.3316V14.7118V13.0919L9.87338 13.0065C9.92122 12.9587 10.0169 12.9108 10.0887 12.8972C10.157 12.8869 10.8473 12.8766 11.6231 12.8766C13.0276 12.8766 13.0311 12.8766 13.1028 12.8015C13.1677 12.7297 13.1712 12.6887 13.1712 11.2021C13.1712 9.72581 13.1677 9.67455 13.1028 9.60279C13.0652 9.5652 12.9832 9.52077 12.9251 9.51052C12.8636 9.50026 11.0455 9.49685 8.88917 9.50026L4.96259 9.51052L4.89766 9.59253C4.83614 9.66772 4.83273 9.74632 4.83273 11.2055C4.83273 12.6955 4.83614 12.7434 4.90107 12.8083C4.966 12.8732 5.01385 12.8766 6.3808 12.8766C7.15314 12.8766 7.84687 12.8869 7.91521 12.8972C7.98698 12.9108 8.08267 12.9587 8.13051 13.0065L8.21594 13.0919V14.7118V16.3316L7.90154 16.3214L7.58373 16.3111L7.56664 14.9852C7.54955 13.7207 7.54614 13.6558 7.48462 13.608C7.38552 13.5362 1.63063 13.5362 1.53152 13.608C1.47001 13.6558 1.46659 13.7207 1.44951 14.9852L1.43242 16.3111L1.11802 16.3214C0.81387 16.3316 0.8002 16.3282 0.783113 16.253C0.772861 16.2086 0.766026 15.491 0.772861 14.6537C0.779696 13.42 0.793366 13.1193 0.830957 13.0612C0.943731 12.8937 0.926644 12.8937 2.5294 12.8835C4.00572 12.8732 4.03989 12.8732 4.1014 12.8049C4.16292 12.7365 4.16633 12.6272 4.18342 10.8809C4.19367 9.86593 4.21418 9.01158 4.23126 8.98424C4.30986 8.86463 4.47048 8.84412 5.37951 8.84412C6.2236 8.84412 6.27145 8.84071 6.33638 8.77578C6.42523 8.68692 6.42523 8.50239 6.3398 8.39645L6.27487 8.31443L5.35559 8.30759C4.85323 8.30418 4.38163 8.31443 4.31328 8.3281Z" fill="#B17400"/>
</svg>
