<svg width="20" height="20" viewBox="0 0 20 20" fill="none" xmlns="http://www.w3.org/2000/svg">
<path d="M12.2356 2.52833C11.8702 2.64009 11.6768 2.93237 11.6768 3.37509V3.64159H11.204H10.7312V3.39229C10.7269 2.8679 10.4217 2.52403 9.95751 2.52403C9.4933 2.52403 9.18812 2.8679 9.18382 3.39229V3.64159H8.71101H8.2382V3.39229C8.2339 2.8679 7.92872 2.52403 7.46451 2.52403C7.0003 2.52403 6.69512 2.8679 6.69082 3.39229V3.64159H6.21801H5.7452V3.39658C5.7452 2.81632 5.28958 2.42517 4.76949 2.56272C4.39554 2.66588 4.20212 2.95386 4.19782 3.40948V3.67597L3.93133 3.69316C3.38115 3.72755 2.92553 4.04992 2.66333 4.57861L2.5 4.90528V11.1593V17.4176L2.60316 17.6755C2.745 18.0279 3.13614 18.4191 3.4886 18.5609L3.7465 18.6641H8.68952H13.6325L13.9119 18.5308C14.2515 18.3718 14.5567 18.0709 14.72 17.7442L14.8361 17.5035L14.8489 15.5908L14.8618 13.6781L16.5554 11.9802C17.7073 10.824 18.2704 10.2308 18.3177 10.1234C18.3993 9.92137 18.3993 9.57321 18.3177 9.37978C18.236 9.18206 17.8534 8.77803 17.6084 8.63618C17.4494 8.54162 17.3634 8.52013 17.1141 8.52013C16.9078 8.52013 16.766 8.54592 16.6628 8.6018C16.5812 8.64478 16.1599 9.03162 15.7301 9.45715L14.9435 10.2394V7.65618C14.9435 4.81501 14.9392 4.76773 14.6813 4.3637C14.4234 3.96825 14.0366 3.71895 13.5294 3.63299L13.2328 3.58141L13.2156 3.29772C13.2027 3.07421 13.1726 2.97105 13.0867 2.83781C12.9104 2.57131 12.5451 2.43807 12.2356 2.52833ZM5.14344 3.25044C5.19072 3.34071 5.20362 4.41528 5.16063 4.57861C5.13914 4.64738 5.10476 4.67317 5.04028 4.66458C4.95432 4.65168 4.95002 4.62589 4.93712 3.96396C4.93282 3.59001 4.93712 3.25474 4.94572 3.22465C4.98011 3.14299 5.09186 3.15588 5.14344 3.25044ZM7.61065 3.23755C7.64504 3.32351 7.64504 4.51843 7.61065 4.6044C7.59776 4.64308 7.55047 4.67317 7.50749 4.67317C7.39144 4.67317 7.37854 4.5915 7.37854 3.92097C7.37854 3.25044 7.39144 3.16877 7.50749 3.16877C7.55047 3.16877 7.59776 3.19886 7.61065 3.23755ZM10.065 3.92097C10.065 4.62159 10.0607 4.65168 9.979 4.65168C9.89733 4.65168 9.89304 4.61729 9.88014 3.96396C9.87584 3.59001 9.88014 3.25474 9.89304 3.22035C9.90593 3.19027 9.94891 3.16877 9.9876 3.17737C10.0564 3.19027 10.065 3.25904 10.065 3.92097ZM12.558 3.92097C12.558 4.63449 12.5537 4.65168 12.4677 4.66458C12.3431 4.68177 12.3216 4.58721 12.3216 3.90808C12.3216 3.31921 12.3602 3.15158 12.4849 3.17737C12.5494 3.19027 12.558 3.27193 12.558 3.92097ZM4.28808 4.55712C4.30957 4.92677 4.41703 5.1116 4.68782 5.23625C5.2466 5.48984 5.78818 5.12449 5.78818 4.49264V4.24334H6.26099H6.7338V4.42387C6.7338 4.96545 7.03898 5.31791 7.50749 5.31791C7.976 5.31791 8.28118 4.96545 8.28118 4.42387V4.24334H8.75399H9.2268V4.49264C9.2268 5.13739 9.78988 5.50274 10.3444 5.21905C10.6108 5.0901 10.7312 4.86659 10.7312 4.50984V4.24334H11.2255H11.7198V4.53993C11.7198 4.88809 11.8187 5.06861 12.0852 5.21905C12.386 5.39098 12.7428 5.33941 13.0007 5.0901C13.1554 4.93966 13.2242 4.74624 13.2242 4.44536V4.23475L13.409 4.26484C13.7529 4.32501 14.0194 4.51414 14.1827 4.82361C14.2773 4.99554 14.2773 5.01703 14.2902 7.93986L14.3031 10.8799L13.0308 12.1522L11.7628 13.4202L11.5608 14.3314L11.3587 15.2469L11.4447 15.363C11.4963 15.4318 11.5823 15.4876 11.6424 15.4962C11.6983 15.5048 12.141 15.4189 12.6267 15.3114L13.5036 15.118L13.9033 14.7182L14.3031 14.3228L14.2902 15.7842C14.2773 17.1855 14.273 17.2542 14.1827 17.4176C14.0753 17.6196 13.9076 17.7829 13.697 17.8947C13.5552 17.972 13.336 17.9763 8.88294 17.9892C5.56467 17.9978 4.15484 17.9892 3.9958 17.9548C3.69062 17.8904 3.45852 17.7098 3.32097 17.4348L3.20922 17.2069V11.1206V5.03423L3.32097 4.81072C3.44992 4.55282 3.63904 4.38949 3.90554 4.30782C4.26229 4.19606 4.27089 4.20466 4.28808 4.55712ZM17.4924 9.39698C17.8534 9.74944 17.8491 9.82251 17.4451 10.2308L17.1356 10.5403L16.7359 10.1406L16.3404 9.74084L16.6456 9.44426C17.0497 9.04882 17.127 9.04452 17.4924 9.39698ZM16.2975 10.6048L16.6843 10.9916L15.008 12.668L13.3317 14.3443L12.9362 13.9489L12.5365 13.5491L14.1999 11.8857C15.1197 10.9658 15.8762 10.2179 15.8891 10.2179C15.902 10.2179 16.0869 10.3942 16.2975 10.6048ZM12.6095 14.6495C12.5107 14.7053 12.1496 14.744 12.1496 14.6968C12.1496 14.671 12.1711 14.5549 12.2012 14.4303L12.2528 14.211L12.4591 14.4174C12.6009 14.5549 12.6482 14.628 12.6095 14.6495Z" fill="#B17400"/>
<path d="M4.74391 7.02834C4.64505 7.1358 4.64934 7.3937 4.7482 7.47966C4.82128 7.54844 5.16084 7.55273 8.7456 7.55273C12.6098 7.55273 12.6656 7.55273 12.7516 7.46677C12.8548 7.36361 12.8633 7.17878 12.7688 7.04554L12.7043 6.95098H8.7585C4.98891 6.95098 4.80838 6.95527 4.74391 7.02834Z" fill="#B17400"/>
<path d="M4.74391 9.60842C4.64505 9.71588 4.64934 9.97378 4.7482 10.0597C4.82128 10.1285 5.16084 10.1328 8.7456 10.1328C12.6098 10.1328 12.6656 10.1328 12.7516 10.0468C12.8548 9.94369 12.8633 9.75886 12.7688 9.62562L12.7043 9.53105H8.7585C4.98891 9.53105 4.80838 9.53535 4.74391 9.60842Z" fill="#B17400"/>
<path d="M4.74404 12.1865C4.67097 12.2682 4.64518 12.5218 4.70536 12.6078C4.79562 12.7496 4.92027 12.7539 7.73564 12.7539C10.3533 12.7539 10.5553 12.7496 10.6413 12.6765C10.7788 12.5648 10.8003 12.3671 10.6886 12.2252L10.5983 12.1092H7.70556C4.95896 12.1092 4.80852 12.1135 4.74404 12.1865Z" fill="#B17400"/>
<path d="M4.75659 14.7732C4.70071 14.8291 4.67063 14.915 4.67063 15.0268C4.67063 15.3449 4.55457 15.332 7.30117 15.332C9.68672 15.332 9.74259 15.332 9.82856 15.246C9.94891 15.1256 9.94031 14.8978 9.81566 14.7818L9.7168 14.6872H7.27968C4.89844 14.6872 4.84256 14.6872 4.75659 14.7732Z" fill="#B17400"/>
</svg>
